<svg aria-hidden="true" style="position: absolute; width: 0; height: 0; overflow: hidden;" version="1.1" xmlns="http://www.w3.org/2000/svg" xmlns:xlink="http://www.w3.org/1999/xlink">
  <defs>
 <symbol id="currency" viewBox="0 0 56 32">
            <path d="M55.985 5.324c0 2.924-2.291 5.324-5.084 5.324-0.458 0-0.895-0.044-1.309-0.175l-9.054 9.469c0.131 0.415 0.175 0.895 0.175 1.375 0 2.945-2.291 5.345-5.084 5.345s-5.084-2.4-5.084-5.345c0-0.48 0.044-0.96 0.175-1.375l-6.502-6.807c-0.393 0.131-0.851 0.196-1.309 0.196s-0.916-0.065-1.331-0.196l-11.585 12.153c0.131 0.436 0.175 0.895 0.175 1.375 0 2.924-2.291 5.324-5.084 5.324s-5.084-2.4-5.084-5.324c0-2.945 2.291-5.345 5.084-5.345 0.458 0 0.895 0.065 1.287 0.196l11.607-12.131c-0.131-0.436-0.175-0.916-0.175-1.396 0-2.924 2.291-5.324 5.105-5.324 2.793 0 5.084 2.4 5.084 5.324 0 0.48-0.044 0.96-0.175 1.396l6.48 6.785c0.415-0.131 0.873-0.175 1.331-0.175s0.916 0.044 1.331 0.175l9.033-9.491c-0.131-0.415-0.175-0.873-0.175-1.353 0-2.924 2.291-5.324 5.084-5.324s5.084 2.4 5.084 5.324z"></path>
            </symbol>
            <symbol id="dollar" viewBox="0 0 18 32">
            <path d="M9.73 14.030c-4.029-1.043-5.329-2.129-5.329-3.815 0-1.943 1.8-3.286 4.801-3.286 3.172 0 4.343 1.514 4.443 3.729h3.929c-0.129-3.058-1.986-5.872-5.701-6.772v-3.886h-5.344v3.829c-3.443 0.757-6.215 2.986-6.215 6.415 0 4.115 3.4 6.158 8.358 7.344 4.443 1.072 5.329 2.629 5.329 4.286 0 1.229-0.872 3.186-4.801 3.186-3.658 0-5.101-1.643-5.301-3.729h-3.901c0.2 3.886 3.115 6.072 6.529 6.801v3.858h5.344v-3.815c3.458-0.657 6.215-2.672 6.215-6.315 0-5.044-4.315-6.772-8.358-7.83z"></path>
            </symbol>
            <symbol id="home" viewBox="0 0 38 32">
            <path d="M15.061 31.997v-11.3h7.538v11.3h9.412v-15.061h5.65l-18.837-16.936-18.823 16.936h5.636v15.061h9.425z"></path>
            </symbol>

             </defs>
</svg>